<svg width="226" height="75" viewBox="0 0 226 75" fill="none" xmlns="http://www.w3.org/2000/svg">
<g clip-path="url(#clip0_3455_2526)">
<path d="M38.3952 21.7897C38.3952 15.7756 33.3152 11.5758 26.0398 11.5758H13.958V62.3368H30.3196C39.693 62.3368 46.4975 56.8077 46.4975 49.1885C46.4975 41.6178 39.693 36.1217 30.3196 36.1217H20.0133V32.0021H26.587C33.54 32.0021 38.3952 27.8023 38.3952 21.7897ZM60.4197 37.9541V11.5629L38.466 11.5674C41.304 14.0523 42.9089 17.5519 42.9089 21.7897C42.9089 26.4943 40.5793 30.5699 36.6249 32.8858C45.5289 34.9895 51.0104 41.1601 51.0104 49.1885C51.0104 59.1948 42.2695 66.4548 30.2281 66.4548H13.5784C16.1085 68.6419 18.8946 70.5198 21.8728 71.9839C24.6513 73.3419 27.2271 74.2892 30.2739 75C33.3213 74.2892 35.8956 73.3419 38.6749 71.9839C51.2932 65.7818 60.6254 52.3653 60.4197 37.9541Z" fill="#0066cc"/>
<path d="M0 0V51.9106L9.442 62.6429V7.49031H34.7715L27.9404 0H0Z" fill="#0066cc"/>
<path d="M220.908 21.0107H225.949V18.4364H213.052V21.0107H218.092V34.2423H220.908V21.0107ZM208.398 18.4364H196.567V34.2423H199.361V27.8069H207.375V25.278H199.361V20.9659H208.398V18.4364ZM187.531 26.3624C187.531 29.4551 185.328 31.962 182.172 31.962C179.015 31.962 176.769 29.4104 176.769 26.317C176.769 23.2243 178.971 20.7174 182.127 20.7174C185.282 20.7174 187.531 23.269 187.531 26.3624ZM190.46 26.317C190.46 21.8465 187.053 18.1658 182.172 18.1658C177.29 18.1658 173.839 21.8912 173.839 26.3624C173.839 30.8328 177.244 34.5136 182.127 34.5136C187.008 34.5136 190.46 30.7874 190.46 26.317ZM165.551 23.607C165.551 25.2333 164.28 26.2722 162.282 26.2722H158.194V20.9659H162.259C164.326 20.9659 165.551 21.8693 165.551 23.607ZM168.889 34.2423L164.597 28.2585C166.822 27.6493 168.389 26.0691 168.389 23.4501C168.389 20.3559 166.141 18.4364 162.486 18.4364H155.402V34.2423H158.194V28.7329H161.69L165.597 34.2423H168.889ZM149.749 31.7135L147.955 29.9068C146.592 31.1716 145.342 31.962 143.39 31.962C140.348 31.962 138.146 29.4332 138.146 26.317C138.146 23.2015 140.348 20.7174 143.39 20.7174C145.207 20.7174 146.569 21.507 147.841 22.6817L149.634 20.6264C148.113 19.182 146.342 18.1658 143.413 18.1658C138.6 18.1658 135.216 21.8465 135.216 26.3624C135.216 30.9238 138.667 34.5136 143.299 34.5136C146.274 34.5136 148.091 33.4299 149.749 31.7135ZM126.361 29.3649L117.846 18.4364H115.258V34.2423H118.006V22.9985L126.769 34.2423H129.107V18.4364H126.361V29.3649ZM104.223 27.9653H98.7501L101.475 21.6435L104.223 27.9653ZM102.815 18.3242H100.226L93.2328 34.2423H96.0936L97.7282 30.4267H105.244L106.856 34.2423H109.808L102.815 18.3242ZM82.8565 31.7809H78.2246V27.4461H82.6522C84.8546 27.4461 85.9215 28.2365 85.9215 29.5908C85.9215 31.0359 84.7631 31.7809 82.8565 31.7809ZM82.0395 25.0976H78.2246V20.8985H82.243C84.0369 20.8985 85.036 21.6435 85.036 22.9295C85.036 24.3982 83.8327 25.0976 82.0395 25.0976ZM82.6065 18.4364H75.4766V34.2423H82.8336C86.3757 34.2423 88.7144 32.7304 88.7144 29.8848C88.7144 27.7167 87.4204 26.6557 85.5588 26.0237C86.7392 25.4136 87.8282 24.4209 87.8282 22.4778C87.8282 19.9952 85.8087 18.4364 82.6065 18.4364Z" fill="#0066cc"/>
<path d="M151.619 57.9656H159.986V56.068H153.716V46.1042H151.619V57.9656ZM144.838 52.0516C144.838 54.3735 143.186 56.2545 140.817 56.2545C138.449 56.2545 136.762 54.3402 136.762 52.0182C136.762 49.6978 138.415 47.8168 140.784 47.8168C143.152 47.8168 144.838 49.7311 144.838 52.0516ZM147.036 52.0182C147.036 48.6641 144.481 45.9011 140.817 45.9011C137.153 45.9011 134.564 48.6974 134.564 52.0516C134.564 55.4072 137.12 58.1687 140.784 58.1687C144.446 58.1687 147.036 55.3739 147.036 52.0182ZM128.31 52.0516C128.31 54.3735 126.658 56.2545 124.29 56.2545C121.921 56.2545 120.234 54.3402 120.234 52.0182C120.234 49.6978 121.888 47.8168 124.256 47.8168C126.623 47.8168 128.31 49.7311 128.31 52.0516ZM130.51 52.0182C130.51 48.6641 127.952 45.9011 124.29 45.9011C120.626 45.9011 118.036 48.6974 118.036 52.0516C118.036 55.4072 120.592 58.1687 124.256 58.1687C127.919 58.1687 130.51 55.3739 130.51 52.0182ZM111.358 52.967V57.9656H113.453V46.1042H111.358V51.0361H105.667V46.1042H103.571V57.9656H105.667V52.967H111.358ZM99.3293 56.068L97.9827 54.713C96.9608 55.6618 96.0234 56.2545 94.5572 56.2545C92.274 56.2545 90.622 54.3569 90.622 52.0182C90.622 49.6796 92.274 47.8168 94.5572 47.8168C95.9214 47.8168 96.9432 48.4095 97.8974 49.2901L99.2424 47.7486C98.1024 46.6649 96.7718 45.9011 94.5748 45.9011C90.9626 45.9011 88.4242 48.6641 88.4242 52.0516C88.4242 55.4754 91.0136 58.1687 94.4902 58.1687C96.7215 58.1687 98.0848 57.3548 99.3293 56.068ZM77.775 49.2052C77.775 48.4095 78.4898 47.782 79.7167 47.782C80.808 47.782 81.881 48.2064 82.954 49.0021L84.0788 47.4258C82.8694 46.4603 81.4893 45.9359 79.751 45.9359C77.3833 45.9359 75.6785 47.3243 75.6785 49.3916C75.6785 51.5954 77.1097 52.3395 79.6489 52.9504C81.8635 53.4581 82.3413 53.9158 82.3413 54.7812C82.3413 55.6952 81.5228 56.2878 80.2281 56.2878C78.7459 56.2878 77.6043 55.7285 76.4627 54.7464L75.2015 56.2378C76.6327 57.5079 78.3534 58.1354 80.177 58.1354C82.6812 58.1354 84.4362 56.8137 84.4362 54.5767C84.4362 52.5942 83.1247 51.6969 80.6038 51.0876C78.3199 50.545 77.775 50.1373 77.775 49.2052Z" fill="#0066cc"/>
</g>
<defs>
<clipPath id="clip0_3455_2526">
<rect width="225.949" height="75" fill="#0066cc"/>
</clipPath>
</defs>
</svg>
